<?xml version="1.0" standalone="no"?>
<!DOCTYPE svg PUBLIC "-//W3C//DTD SVG 20010904//EN"
 "http://www.w3.org/TR/2001/REC-SVG-20010904/DTD/svg10.dtd">
<svg version="1.0" xmlns="http://www.w3.org/2000/svg"
 viewBox="120 250 1010 680"
 preserveAspectRatio="xMidYMid meet">

<g transform="translate(0.000000,1254.000000) scale(0.100000,-0.100000)"
fill="#000000" stroke="none">
<path d="M5920 9915 c-14 -8 -20 -14 -15 -14 6 0 21 6 35 14 14 8 21 14 15 14
-5 0 -21 -6 -35 -14z"/>
<path d="M5818 9864 c-38 -20 -36 -28 2 -9 17 9 30 18 30 20 0 7 -1 6 -32 -11z"/>
<path d="M5692 9779 c-23 -17 -42 -33 -42 -35 0 -3 20 9 45 27 40 29 51 39 42
39 -2 0 -22 -14 -45 -31z"/>
<path d="M7160 9665 c13 -14 26 -25 28 -25 3 0 -5 11 -18 25 -13 14 -26 25
-28 25 -3 0 5 -11 18 -25z"/>
<path d="M7205 9610 c10 -11 20 -20 23 -20 3 0 -3 9 -13 20 -10 11 -20 20 -23
20 -3 0 3 -9 13 -20z"/>
<path d="M7811 8758 c-1 -16 -5 -28 -10 -28 -5 0 -12 -9 -16 -19 -3 -10 -19
-24 -35 -31 -16 -7 -32 -21 -35 -31 -4 -10 -11 -19 -17 -19 -6 0 -18 -9 -28
-20 -9 -11 -35 -24 -56 -29 -30 -7 -9 -9 95 -10 l134 -1 -7 86 c-7 89 -24 157
-25 102z"/>
<path d="M8438 8233 l-68 -4 15 -23 c8 -12 16 -34 17 -49 2 -27 3 -26 55 25
29 29 53 54 53 55 0 2 -1 2 -2 1 -2 -1 -33 -3 -70 -5z m42 -16 c0 -2 -10 -12
-22 -23 l-23 -19 19 23 c18 21 26 27 26 19z"/>
<path d="M6738 8083 c67 -2 177 -2 245 0 67 1 12 3 -123 3 -135 0 -190 -2
-122 -3z"/>
<path d="M7483 8083 c53 -2 141 -2 195 0 53 1 9 3 -98 3 -107 0 -151 -2 -97
-3z"/>
<path d="M6250 8020 c-8 -5 -10 -10 -5 -10 6 0 17 5 25 10 8 5 11 10 5 10 -5
0 -17 -5 -25 -10z"/>
<path d="M4706 7855 c10 -70 83 -276 139 -390 132 -273 320 -495 550 -647 76
-51 195 -118 208 -118 2 0 -1 18 -7 41 -8 32 -16 42 -38 46 -24 5 -26 8 -17
31 5 14 6 28 2 31 -12 9 -35 80 -29 90 3 5 -21 41 -54 80 -152 182 -292 449
-356 679 -10 34 -21 58 -24 51 -5 -7 -9 -6 -13 4 -3 9 -26 18 -57 22 -29 4
-64 13 -78 21 -15 8 -32 14 -39 14 -6 0 -13 5 -15 10 -2 6 -14 12 -28 12 -14
1 -32 10 -41 20 -20 22 -45 23 -53 3 -9 -24 -33 -17 -45 13 -9 24 -10 23 -5
-13z"/>
<path d="M7379 7133 c-1 -230 -12 -463 -17 -389 -2 18 -3 18 -20 3 -10 -10
-26 -17 -35 -17 -9 0 -19 -5 -22 -10 -4 -6 -14 -9 -23 -6 -10 3 -43 2 -74 -3
-58 -8 -58 -7 -59 18 -1 25 -2 25 -9 -4 -4 -16 -8 -147 -9 -289 l-1 -259 57
84 c31 46 94 131 140 189 l83 105 0 428 c0 235 -2 427 -5 427 -3 0 -6 -125 -6
-277z"/>
<path d="M5627 6848 c7 -8 11 -17 8 -19 -2 -3 5 -5 15 -5 25 0 25 0 -7 22 -20
13 -25 13 -16 2z"/>
<path d="M1855 5704 c-147 -31 -306 -132 -392 -247 -102 -138 -149 -286 -141
-449 16 -321 234 -574 545 -634 361 -69 700 120 809 452 26 80 29 102 29 219
0 116 -3 138 -28 210 -120 342 -457 526 -822 449z m288 -129 c239 -50 427
-286 427 -535 0 -250 -187 -484 -427 -535 -172 -37 -358 6 -483 110 -210 176
-259 494 -112 721 129 197 359 289 595 239z"/>
<path d="M5473 5702 l-73 -3 0 -59 0 -60 470 0 470 0 0 60 0 60 -397 2 c-219
2 -431 2 -470 0z"/>
<path d="M3450 5640 l0 -60 236 -2 237 -3 -2 -597 -2 -598 70 0 71 0 2 598 3
597 238 3 237 2 0 60 0 60 -545 0 -545 0 0 -60z"/>
<path d="M7270 5040 l0 -660 65 0 65 0 2 598 3 597 210 -1 c229 0 260 -5 345
-56 44 -27 60 -44 84 -91 76 -149 -2 -322 -167 -368 -23 -7 -87 -15 -142 -18
-82 -5 -100 -9 -103 -22 -2 -10 93 -129 235 -296 131 -153 250 -293 265 -311
26 -31 28 -32 113 -32 l86 0 -178 208 c-97 114 -203 237 -235 274 -32 36 -58
68 -58 71 0 2 29 12 65 22 78 21 168 77 213 131 84 102 102 274 42 399 -45 93
-166 178 -288 204 -31 7 -168 11 -337 11 l-285 0 0 -660z"/>
<path d="M9090 5040 l0 -660 70 0 70 0 0 660 0 660 -70 0 -70 0 0 -660z"/>
<path d="M10811 5335 c0 -5 11 -30 24 -55 13 -25 24 -40 24 -35 0 6 -11 30
-24 55 -13 25 -24 41 -24 35z"/>
<path d="M10712 5255 c-30 -62 -27 -71 4 -12 14 27 24 51 22 53 -3 2 -14 -17
-26 -41z"/>
<path d="M10930 5088 c37 -79 101 -210 142 -293 41 -82 103 -210 138 -282 l63
-133 94 0 93 0 -100 200 c-55 110 -102 200 -104 200 -2 0 -3 -7 -2 -16 1 -12
-14 -22 -51 -33 -30 -8 -54 -22 -55 -30 -2 -9 -65 107 -141 257 -76 150 -140
272 -142 272 -2 0 27 -64 65 -142z"/>
<path d="M10574 4978 c-73 -146 -108 -207 -114 -198 -7 11 -16 5 -43 -23 -37
-41 -88 -51 -105 -21 -7 13 -31 -26 -101 -165 -50 -100 -91 -184 -91 -187 0
-3 41 -3 91 -2 l91 3 103 215 c56 118 143 299 193 403 50 103 89 187 86 187
-2 0 -52 -95 -110 -212z"/>
<path d="M5447 5093 l-48 -4 3 -62 3 -62 435 2 435 2 3 65 3 66 -393 -2 c-216
-1 -415 -3 -441 -5z"/>
<path d="M5400 4445 l0 -65 470 0 470 0 0 65 0 65 -470 0 -470 0 0 -65z"/>
<path d="M6574 3525 c11 -8 45 -24 75 -35 84 -30 105 -43 120 -75 19 -38 0
-73 -53 -99 -33 -16 -43 -17 -78 -7 -21 7 -48 21 -58 31 -19 19 -20 19 -47 -4
l-27 -23 41 -27 c59 -39 143 -46 207 -18 37 17 51 30 66 64 25 55 25 85 0 126
-19 30 -31 41 -29 25 3 -21 -2 -33 -15 -33 -19 0 -105 50 -86 50 13 1 13 2 0
9 -26 15 -72 23 -65 11 9 -14 0 -13 -38 5 -29 14 -30 14 -13 0z"/>
<path d="M6670 3530 c8 -5 22 -9 30 -9 10 0 8 3 -5 9 -27 12 -43 12 -25 0z"/>
<path d="M8802 3504 c-1 -20 -7 -31 -17 -31 -8 0 -15 4 -15 9 0 5 -4 6 -10 3
-6 -4 -10 -53 -10 -116 l0 -109 145 0 145 0 0 29 0 30 -112 -2 -113 -2 -6 110
c-3 61 -6 96 -7 79z"/>
<path d="M2995 3509 c-329 -12 -336 -15 -32 -17 231 -2 267 0 267 13 0 8 -1
14 -2 13 -2 0 -106 -5 -233 -9z"/>
<path d="M4612 3480 c-2 -49 26 -121 61 -158 44 -48 96 -67 182 -67 63 0 89 5
121 22 79 42 136 136 133 215 -1 23 -1 22 -8 -2 -9 -33 -41 -40 -41 -8 -1 14
-8 2 -19 -30 -20 -57 -58 -105 -106 -129 -37 -20 -124 -19 -161 0 -52 27 -103
99 -105 149 -1 19 -3 18 -9 -7 -4 -16 -8 -23 -9 -14 0 9 -7 19 -15 22 -8 3
-16 16 -19 29 -2 13 -5 3 -5 -22z"/>
<path d="M5602 3393 l-2 -133 30 0 30 0 0 88 c0 49 -3 91 -6 95 -4 3 -14 -1
-23 -10 -15 -16 -16 -13 -22 38 -4 36 -6 11 -7 -78z"/>
<path d="M7351 3460 c0 -36 -4 -95 -8 -132 l-6 -68 167 0 167 0 -3 27 -3 27
-130 2 -130 1 -3 86 -3 87 108 2 108 2 -99 3 c-55 2 -112 -1 -127 -6 -24 -8
-28 -7 -32 12 -2 12 -5 -7 -6 -43z"/>
<path d="M1326 3501 c-5 -8 53 -11 225 -11 128 0 230 2 228 5 -3 2 -104 7
-225 11 -162 5 -223 4 -228 -5z"/>
<path d="M9485 3500 c-4 -7 64 -9 197 -8 145 1 184 3 138 8 -101 12 -328 11
-335 0z"/>
<path d="M10985 3500 c-170 -5 -156 -6 133 -8 180 -1 321 2 318 7 -6 9 -146 9
-451 1z"/>
<path d="M5825 3491 c-11 -5 -24 -6 -29 -3 -5 3 -6 0 -2 -7 4 -6 12 -8 18 -5
7 4 8 2 4 -5 -4 -6 20 -54 56 -111 l63 -99 43 -1 42 0 0 105 c0 103 0 105 -20
93 -17 -11 -22 -10 -30 2 -6 10 -10 -6 -12 -50 l-3 -64 -53 77 c-29 42 -54 77
-55 76 -1 0 -11 -4 -22 -8z"/>
<path d="M3710 3451 c1 -43 35 -105 79 -143 88 -75 235 -78 317 -6 l35 31 -28
18 c-27 18 -28 18 -53 -5 -88 -82 -245 -34 -282 86 -8 29 -16 37 -39 40 -26 4
-29 1 -29 -21z"/>
<path d="M8205 3459 c-4 -6 -13 -8 -20 -5 -15 6 -25 -43 -25 -131 l0 -63 30 0
30 0 0 105 c0 103 -2 116 -15 94z"/>
</g>
</svg>
